<?xml version="1.0" standalone="no"?>
<!DOCTYPE svg PUBLIC "-//W3C//DTD SVG 20010904//EN"
 "http://www.w3.org/TR/2001/REC-SVG-20010904/DTD/svg10.dtd">
<svg version="1.0" xmlns="http://www.w3.org/2000/svg"
 width="1929.000000pt" height="1929.000000pt" viewBox="0 0 1929.000000 1929.000000"
 preserveAspectRatio="xMidYMid meet">
<metadata>
Created by potrace 1.11, written by Peter Selinger 2001-2013
</metadata>
<g transform="translate(0.000000,1929.000000) scale(0.100000,-0.100000)"
fill="#000000" stroke="none">
<path d="M9149 19275 c-2 -2 -65 -6 -139 -10 -74 -4 -148 -8 -165 -10 -124
-12 -173 -18 -189 -21 -11 -2 -56 -8 -100 -14 -45 -6 -92 -13 -106 -15 -14 -2
-44 -7 -67 -10 -80 -9 -377 -59 -393 -65 -3 -1 -9 -2 -13 -1 -10 2 -247 -42
-347 -64 -36 -8 -81 -17 -100 -20 -19 -3 -55 -11 -80 -16 -25 -6 -56 -13 -70
-15 -36 -7 -379 -93 -415 -104 -16 -5 -55 -17 -85 -27 -30 -9 -57 -18 -60 -18
-11 -2 -59 -18 -120 -40 -36 -13 -148 -54 -250 -90 -183 -66 -530 -202 -626
-246 -185 -83 -256 -117 -479 -230 -137 -70 -281 -143 -320 -164 -38 -21 -108
-58 -155 -83 -268 -143 -599 -361 -921 -607 -37 -27 -76 -57 -89 -65 -12 -8
-28 -20 -34 -25 -6 -6 -60 -48 -121 -95 -94 -72 -316 -253 -351 -285 -6 -6
-48 -41 -92 -79 -45 -38 -79 -73 -76 -78 3 -4 1 -7 -4 -6 -27 8 -525 -484
-787 -776 -5 -6 -37 -43 -70 -81 -33 -39 -62 -72 -65 -75 -33 -32 -147 -179
-143 -184 4 -3 1 -6 -5 -6 -9 0 -107 -121 -214 -265 -20 -27 -41 -54 -45 -60
-13 -15 -163 -230 -224 -320 -200 -294 -541 -889 -521 -910 4 -5 2 -6 -3 -2
-6 3 -77 -128 -167 -311 -195 -396 -213 -435 -233 -511 -18 -69 -18 -71 -95
-251 -47 -111 -113 -292 -148 -405 -17 -55 -43 -138 -57 -185 -31 -102 -151
-587 -160 -650 -4 -24 -9 -48 -11 -51 -4 -7 -28 -128 -40 -198 -6 -38 -10 -56
-18 -91 -3 -14 -8 -41 -11 -60 -2 -19 -7 -48 -10 -65 -26 -146 -46 -265 -50
-310 -3 -21 -13 -88 -19 -120 -2 -11 -7 -47 -11 -80 -4 -33 -9 -69 -10 -80 -2
-11 -6 -45 -10 -75 -4 -30 -8 -66 -11 -80 -2 -14 -6 -61 -10 -105 -3 -44 -7
-91 -9 -104 -25 -149 -24 -921 0 -1296 15 -229 25 -360 30 -390 1 -11 6 -56
10 -100 4 -44 8 -91 11 -105 2 -14 6 -50 9 -80 3 -30 8 -68 10 -85 3 -16 7
-55 10 -85 4 -30 8 -62 10 -70 3 -8 9 -46 14 -85 17 -115 21 -145 42 -260 11
-60 22 -119 23 -130 2 -11 6 -29 9 -40 4 -11 9 -36 12 -55 22 -140 115 -482
201 -740 19 -58 38 -112 41 -120 4 -8 7 -17 7 -20 2 -8 56 -162 73 -205 8 -22
19 -49 23 -60 40 -105 157 -399 175 -440 7 -16 43 -97 78 -180 99 -228 303
-653 410 -850 18 -33 46 -85 62 -115 17 -30 36 -61 42 -68 7 -7 13 -18 13 -23
0 -6 16 -35 35 -65 19 -30 35 -57 35 -60 0 -2 21 -37 47 -77 88 -136 234 -359
244 -371 5 -6 65 -89 134 -184 68 -95 130 -179 137 -186 7 -8 22 -26 33 -42
33 -45 184 -234 249 -309 33 -38 67 -79 76 -89 28 -35 112 -130 199 -224 47
-52 87 -98 89 -103 2 -5 10 -9 18 -9 9 0 13 -4 10 -8 -2 -4 89 -100 202 -212
202 -200 274 -268 401 -380 34 -30 72 -64 84 -75 12 -11 51 -45 87 -75 36 -30
67 -57 70 -60 15 -16 222 -180 325 -258 66 -51 125 -96 130 -100 50 -41 416
-292 425 -292 6 0 10 -3 10 -8 0 -4 9 -12 20 -17 11 -6 66 -39 122 -75 56 -36
110 -69 120 -75 9 -5 59 -35 110 -65 50 -30 104 -62 119 -70 15 -8 92 -50 171
-93 137 -76 445 -230 593 -298 215 -98 486 -210 496 -204 4 3 9 1 11 -4 3 -9
257 -105 388 -147 41 -14 84 -28 95 -33 55 -24 561 -171 675 -197 26 -5 33 -7
180 -43 69 -16 136 -32 150 -34 14 -3 72 -15 128 -26 57 -12 108 -18 113 -15
5 3 9 1 9 -4 0 -5 6 -9 13 -9 13 0 52 -6 177 -28 121 -21 133 -23 203 -36 34
-6 71 -13 82 -14 11 -2 35 -6 53 -9 72 -13 91 -15 177 -21 50 -4 113 -8 140
-10 330 -24 1471 -25 1815 0 188 13 236 18 320 31 52 8 104 16 115 18 11 2 38
7 60 11 88 15 205 37 295 55 52 11 106 22 120 24 14 3 59 12 100 21 41 9 84
18 95 21 11 2 32 6 47 9 48 9 203 46 218 52 8 3 18 6 22 5 4 -1 50 10 103 24
53 14 105 27 116 30 29 6 46 11 164 44 61 17 118 33 128 35 9 2 23 7 30 12 6
4 22 9 35 11 62 8 653 224 827 302 22 10 96 43 165 73 180 78 200 88 460 214
129 63 236 119 238 124 2 5 10 9 18 9 7 0 36 14 62 30 27 17 54 30 61 30 6 0
11 4 11 8 0 4 12 13 28 19 34 15 74 39 243 146 74 46 165 101 203 121 38 21
95 55 125 76 149 104 187 131 331 238 85 63 160 121 166 128 6 8 14 14 17 14
4 0 15 7 24 15 10 8 47 37 83 66 36 28 74 58 85 67 170 140 221 183 259 217 6
6 49 44 96 85 280 247 746 712 734 732 -3 4 -1 8 4 8 11 0 37 26 91 90 25 29
50 58 56 64 120 120 668 845 668 883 0 7 3 10 6 8 5 -3 280 400 326 477 6 9
47 77 92 151 45 74 113 197 151 273 38 76 83 162 99 190 45 74 165 326 159
331 -3 3 0 11 7 17 7 7 50 104 96 217 46 112 89 218 96 234 106 243 291 810
370 1132 15 59 29 115 31 123 27 108 43 193 39 201 -4 5 -2 9 3 9 5 0 9 6 9
13 0 6 16 95 36 197 19 102 35 192 36 200 0 8 7 48 15 88 8 40 18 92 21 115 3
23 12 87 20 142 8 55 17 123 20 150 3 28 8 64 10 80 2 17 7 62 10 100 3 39 8
93 10 120 37 400 46 1087 21 1485 -2 30 -7 107 -11 170 -3 63 -8 122 -10 130
-2 8 -7 55 -10 104 -4 48 -8 98 -11 110 -2 11 -6 41 -9 66 -3 25 -8 59 -10 75
-2 17 -7 53 -10 80 -4 28 -8 57 -10 65 -3 8 -7 33 -10 55 -8 52 -14 84 -20
115 -3 14 -8 41 -11 60 -3 19 -12 67 -19 105 -8 39 -16 81 -19 95 -2 14 -9 45
-15 70 -5 25 -13 60 -16 79 -3 19 -8 37 -10 41 -2 4 -7 22 -10 41 -16 92 -128
523 -170 654 -7 22 -22 74 -35 115 -53 176 -211 623 -271 765 -7 17 -13 32
-14 35 -1 3 -9 22 -18 44 -9 21 -17 40 -17 42 0 6 -115 262 -161 359 -23 50
-43 92 -44 95 -1 7 -134 271 -145 290 -5 8 -46 82 -90 165 -44 82 -85 152 -91
156 -6 3 -10 10 -10 15 2 13 -148 264 -158 264 -4 0 -8 6 -8 13 0 15 -220 353
-249 381 -10 11 -17 20 -14 20 4 1 -105 158 -133 191 -4 6 -32 42 -61 81 -28
40 -65 89 -82 109 -62 80 -248 311 -266 330 -10 11 -26 29 -35 41 -284 336
-738 790 -1073 1073 -47 40 -105 90 -130 111 -25 21 -85 70 -135 110 -49 39
-97 77 -105 83 -9 7 -42 33 -75 57 -33 25 -62 47 -65 50 -16 18 -282 206 -444
314 -219 146 -332 216 -558 344 -51 29 -100 57 -108 62 -43 28 -465 241 -600
304 -334 156 -697 295 -1180 451 -173 56 -692 189 -850 219 -14 3 -81 16 -150
30 -149 30 -151 30 -310 56 -150 25 -280 44 -375 55 -27 3 -57 8 -65 10 -8 2
-49 6 -90 10 -41 3 -88 7 -105 10 -16 2 -59 7 -95 10 -36 3 -96 8 -135 11 -38
3 -104 8 -145 10 -96 6 -1017 14 -1021 9z m1116 -919 c44 -3 127 -8 185 -11
167 -10 220 -14 305 -25 117 -14 139 -18 323 -50 31 -6 68 -12 82 -14 57 -10
242 -47 330 -66 52 -11 106 -23 120 -25 35 -6 499 -124 535 -135 17 -6 77 -24
135 -41 188 -55 288 -91 710 -256 63 -24 131 -51 150 -59 52 -23 507 -249 570
-285 138 -77 319 -183 505 -296 11 -7 27 -15 35 -19 8 -4 36 -23 62 -41 26
-18 50 -33 53 -33 3 0 11 -5 18 -10 7 -6 90 -62 186 -126 383 -255 637 -457
984 -784 38 -36 75 -64 81 -62 6 2 8 1 5 -3 -4 -3 88 -102 205 -218 199 -201
340 -349 438 -462 24 -27 52 -59 63 -70 97 -102 381 -479 511 -680 21 -33 41
-62 44 -65 8 -7 230 -361 230 -366 0 -2 20 -35 45 -74 25 -39 45 -72 45 -75 0
-2 13 -26 29 -53 93 -158 206 -375 301 -577 94 -199 157 -342 164 -370 4 -16
23 -65 43 -109 52 -118 51 -116 73 -181 12 -33 25 -69 30 -80 17 -40 125 -373
208 -640 3 -11 7 -24 9 -30 35 -110 145 -597 158 -698 1 -12 6 -42 9 -67 14
-89 24 -159 31 -220 3 -25 8 -56 10 -70 2 -14 7 -50 10 -80 3 -30 8 -66 10
-80 2 -14 7 -65 10 -114 4 -50 8 -98 10 -108 3 -15 7 -57 20 -253 26 -380 26
-1187 0 -1355 -2 -14 -7 -63 -10 -110 -3 -47 -8 -98 -9 -115 -6 -55 -17 -140
-21 -165 -2 -14 -7 -50 -10 -81 -3 -31 -8 -67 -10 -80 -3 -13 -7 -41 -10 -64
-3 -22 -14 -89 -25 -150 -10 -60 -21 -126 -24 -145 -4 -29 -49 -255 -61 -310
-34 -153 -84 -356 -130 -520 -26 -97 -129 -419 -145 -455 -5 -11 -21 -51 -35
-90 -23 -61 -124 -306 -160 -390 -7 -16 -33 -79 -58 -140 -84 -205 -202 -447
-320 -655 -11 -19 -34 -60 -50 -90 -51 -92 -195 -328 -284 -463 -45 -70 -83
-132 -83 -136 0 -5 -4 -11 -8 -13 -4 -1 -33 -39 -63 -83 -114 -165 -245 -345
-308 -421 -14 -17 -33 -40 -41 -50 -33 -42 -107 -129 -133 -158 -16 -17 -38
-44 -50 -59 -12 -15 -40 -47 -62 -71 -22 -24 -74 -81 -115 -127 -84 -93 -473
-484 -566 -569 -33 -30 -94 -84 -135 -120 -41 -36 -91 -82 -111 -103 -21 -20
-38 -34 -38 -31 0 4 -111 -86 -130 -106 -3 -3 -25 -21 -50 -40 -25 -19 -47
-37 -50 -41 -9 -11 -293 -224 -377 -283 -46 -32 -83 -63 -83 -68 0 -6 -3 -9
-6 -5 -3 3 -65 -34 -137 -82 -73 -48 -184 -119 -247 -157 -63 -38 -117 -71
-120 -74 -3 -3 -16 -11 -29 -19 -227 -128 -368 -203 -531 -284 -91 -44 -167
-81 -170 -82 -3 0 -32 -13 -65 -29 -309 -144 -779 -318 -1170 -431 -160 -47
-703 -186 -775 -199 -14 -2 -61 -11 -105 -21 -110 -22 -230 -43 -295 -50 -30
-4 -66 -8 -80 -11 -23 -3 -62 -7 -195 -19 -276 -25 -1804 -25 -2050 0 -22 2
-65 6 -95 9 -30 2 -71 7 -90 10 -19 3 -53 7 -75 10 -35 4 -314 55 -385 71 -14
3 -34 7 -45 9 -59 12 -298 67 -347 80 -31 9 -67 18 -80 20 -48 11 -175 45
-227 61 -30 9 -62 18 -70 20 -37 8 -197 57 -341 106 -85 28 -162 52 -170 53
-8 0 -17 4 -20 7 -3 3 -34 16 -70 29 -104 36 -394 153 -535 215 -128 56 -546
260 -595 290 -68 41 -241 135 -249 135 -5 0 -11 3 -13 8 -1 4 -32 25 -68 46
-87 52 -364 229 -370 235 -17 19 -98 69 -104 64 -3 -3 -6 -2 -6 4 0 5 -26 27
-58 49 -31 21 -59 41 -62 44 -3 3 -21 17 -40 30 -19 13 -37 27 -40 30 -12 12
-85 65 -88 62 -2 -2 -11 6 -20 16 -9 10 -60 52 -112 93 -52 41 -100 78 -106
84 -6 5 -33 28 -60 50 -130 107 -138 114 -330 292 -61 56 -115 99 -118 95 -4
-4 -6 -2 -4 3 1 6 -69 82 -157 170 -184 185 -298 307 -420 450 -33 39 -63 72
-66 75 -5 4 -165 201 -213 262 -10 12 -43 57 -74 98 -32 41 -59 77 -63 80 -3
3 -39 52 -79 110 -41 58 -77 107 -80 110 -3 3 -9 12 -15 21 -5 9 -53 81 -106
160 -52 79 -112 171 -133 204 -20 33 -41 67 -47 75 -25 41 -189 322 -189 324
0 2 -21 41 -46 87 -135 243 -330 663 -438 942 -14 37 -37 96 -52 132 -41 107
-170 501 -204 625 -17 63 -37 138 -45 165 -16 58 -33 129 -41 165 -3 14 -7 36
-10 49 -3 14 -7 28 -9 31 -2 4 -7 22 -10 41 -3 19 -11 54 -16 79 -6 25 -13 56
-15 70 -3 14 -11 60 -20 102 -8 43 -16 87 -17 98 -1 11 -5 20 -10 20 -4 0 -6
4 -2 9 3 5 0 31 -6 58 -6 26 -15 73 -19 103 -23 143 -39 249 -45 290 -3 25 -8
56 -10 70 -2 14 -7 59 -10 100 -4 41 -8 93 -10 115 -30 317 -24 1257 10 1695
11 144 12 161 19 215 3 28 10 95 16 150 15 136 20 176 56 390 31 190 61 336
110 538 2 9 6 25 8 35 23 105 122 443 173 592 60 180 190 525 223 595 5 11 19
44 30 74 12 30 29 73 40 95 10 23 30 68 45 101 14 33 36 83 48 110 55 125 288
578 300 583 4 2 7 7 7 12 0 26 369 608 393 618 4 2 7 10 7 17 0 7 3 15 8 17 4
2 49 60 99 130 51 70 99 135 107 145 8 10 50 63 92 118 85 110 177 226 210
265 12 14 41 48 64 75 23 28 52 61 64 75 12 14 62 70 110 125 109 123 490 503
606 605 47 41 100 89 118 107 17 18 32 30 32 26 0 -4 17 9 38 28 20 20 67 59
105 89 37 29 67 58 67 63 0 6 3 8 6 4 6 -6 8 -5 61 40 46 40 43 37 213 162 85
63 171 126 190 140 52 38 120 85 260 178 69 45 130 86 135 90 10 9 257 165
335 213 67 41 185 108 340 193 212 116 602 300 735 347 28 9 122 45 210 79
231 90 588 204 738 236 10 2 26 6 35 9 9 3 28 7 42 10 14 2 45 9 70 16 25 7
54 14 65 16 24 5 101 20 170 34 177 36 384 70 575 95 25 3 83 8 130 11 47 3
108 7 135 9 28 3 136 7 240 11 105 3 191 7 193 9 5 4 1162 -4 1247 -9z"/>
<path d="M9558 17035 c-1 -2 -97 -6 -213 -9 -115 -4 -234 -8 -263 -11 -29 -2
-87 -7 -130 -10 -42 -3 -88 -8 -102 -10 -14 -2 -45 -6 -70 -10 -25 -4 -58 -9
-75 -11 -84 -13 -434 -89 -615 -135 -119 -29 -137 -34 -177 -43 -10 -2 -54
-14 -98 -26 -227 -61 -301 -81 -316 -85 -147 -34 -637 -194 -691 -225 -10 -6
-23 -10 -29 -10 -5 0 -34 -11 -62 -23 -29 -13 -74 -32 -100 -42 -26 -10 -50
-22 -53 -26 -3 -5 -11 -9 -19 -9 -15 0 -303 -139 -405 -196 -167 -93 -355
-211 -504 -318 -212 -151 -483 -392 -649 -577 -27 -30 -58 -65 -71 -79 -42
-47 -142 -175 -191 -245 -27 -38 -52 -72 -55 -75 -37 -30 -327 -559 -314 -572
2 -3 -2 -11 -11 -18 -8 -7 -15 -18 -15 -24 0 -6 -14 -45 -31 -86 -56 -138
-148 -440 -173 -570 -3 -14 -10 -47 -16 -75 -21 -101 -37 -184 -44 -235 -9
-69 -24 -195 -25 -210 0 -8 -4 -44 -8 -80 -15 -129 -8 -590 11 -710 2 -14 7
-47 11 -75 9 -65 15 -105 20 -130 14 -81 29 -151 47 -220 11 -44 22 -89 24
-100 2 -11 8 -31 13 -45 5 -14 19 -59 31 -100 12 -41 26 -84 31 -95 4 -11 15
-40 23 -65 29 -89 89 -235 147 -355 60 -123 159 -295 171 -295 4 0 8 -5 8 -12
0 -10 96 -149 141 -203 181 -219 484 -539 502 -528 5 3 7 2 4 -4 -3 -5 17 -30
45 -54 29 -24 61 -54 72 -65 12 -12 66 -58 121 -103 125 -103 123 -101 165
-131 19 -13 37 -27 40 -30 5 -6 114 -84 148 -105 9 -5 49 -31 88 -57 39 -27
74 -48 77 -48 3 0 25 -13 49 -29 85 -56 562 -301 683 -350 11 -5 52 -22 90
-39 39 -17 144 -61 235 -97 91 -36 174 -70 185 -75 57 -24 283 -107 480 -177
55 -19 116 -41 135 -49 53 -20 455 -155 635 -213 88 -28 222 -72 298 -97 76
-25 146 -47 156 -49 9 -2 33 -10 52 -17 18 -8 39 -15 44 -16 12 -2 184 -55
265 -82 68 -23 260 -81 360 -110 106 -30 226 -66 360 -108 63 -20 120 -37 125
-38 18 -4 389 -126 515 -169 69 -24 152 -53 185 -64 145 -49 448 -162 565
-211 124 -51 209 -104 290 -180 94 -88 118 -108 124 -104 3 2 4 1 1 -2 -2 -4
21 -34 52 -68 59 -64 135 -174 154 -222 5 -16 16 -42 24 -59 17 -38 47 -142
75 -265 70 -301 63 -444 -37 -760 -84 -265 -262 -500 -496 -657 -40 -26 -74
-50 -77 -53 -23 -23 -259 -140 -375 -185 -118 -47 -322 -104 -440 -124 -33 -6
-73 -13 -90 -16 -16 -2 -52 -7 -80 -10 -27 -3 -67 -8 -88 -11 -21 -3 -57 -7
-80 -9 -23 -2 -85 -6 -137 -10 -120 -10 -516 -26 -635 -27 -42 0 -416 13 -440
16 -16 2 -59 7 -95 10 -98 11 -308 46 -367 62 -29 8 -79 21 -110 29 -79 21
-192 62 -288 102 -315 134 -532 282 -819 559 -33 32 -154 171 -174 200 -12 19
-28 34 -34 34 -6 0 -9 3 -5 6 5 5 -56 109 -82 140 -5 7 -8 14 -5 16 2 3 -11
38 -30 79 -49 107 -62 139 -76 184 -7 22 -16 45 -20 50 -5 6 -8 13 -8 18 0 8
-48 166 -62 207 -8 21 -33 117 -45 170 -21 90 -45 203 -50 235 -4 22 -11 67
-16 100 -6 33 -12 128 -15 211 -7 249 26 303 196 320 42 4 120 -25 120 -45 0
-10 3 -21 7 -24 3 -4 7 -17 9 -29 1 -13 7 -50 13 -83 6 -33 13 -78 16 -100 2
-22 7 -51 10 -65 2 -14 7 -45 10 -70 7 -66 14 -122 19 -145 2 -11 11 -60 21
-110 50 -273 136 -517 261 -740 153 -274 384 -496 684 -658 84 -46 288 -135
323 -142 10 -2 44 -13 75 -24 95 -33 307 -87 422 -107 14 -2 60 -11 104 -20
43 -8 80 -13 83 -10 3 3 16 1 29 -4 80 -31 600 -34 809 -5 17 2 53 6 80 9 110
11 161 17 185 23 14 3 34 7 45 8 47 4 130 17 136 21 3 2 21 6 40 9 19 3 63 13
99 21 36 9 73 17 82 19 188 40 450 149 608 254 93 62 217 178 273 256 121 170
177 371 171 610 -4 152 -7 175 -38 280 -17 56 -73 184 -86 195 -3 3 -17 23
-31 45 -29 44 -124 144 -179 188 -34 26 -151 86 -235 119 -22 9 -74 30 -115
46 -332 133 -1194 426 -1610 546 -85 25 -177 52 -204 60 -27 8 -53 13 -58 10
-4 -3 -8 0 -8 5 0 6 -3 10 -7 10 -5 -1 -11 0 -15 1 -5 1 -11 3 -15 4 -5 1 -42
12 -83 25 -450 135 -1182 383 -1715 579 -206 76 -636 243 -710 276 -16 8 -82
36 -145 62 -268 113 -640 319 -932 515 -49 33 -90 59 -94 59 -3 0 -12 7 -21
15 -8 9 -42 34 -76 57 -57 39 -69 48 -119 91 -12 9 -24 17 -27 17 -3 0 -20 13
-38 28 -17 15 -40 34 -50 42 -62 50 -133 110 -168 140 -79 69 -333 327 -395
400 -35 41 -66 77 -70 80 -3 3 -41 52 -84 110 -43 58 -84 113 -91 122 -7 9
-19 27 -26 39 -6 13 -20 32 -30 43 -11 11 -19 24 -19 29 0 4 -13 27 -29 50
-36 53 -166 288 -210 381 -64 133 -128 292 -165 406 -21 63 -40 122 -43 130
-4 8 -8 24 -10 34 -2 11 -11 47 -19 80 -9 34 -18 72 -20 86 -2 14 -9 45 -14
70 -13 64 -28 156 -35 220 -3 30 -7 69 -10 85 -27 218 -28 1012 0 1250 2 22 7
65 11 95 8 80 14 122 20 148 3 13 7 43 10 65 10 72 53 246 100 400 52 174 62
227 44 227 -46 0 -139 -123 -447 -587 -95 -144 -173 -267 -173 -272 0 -6 -4
-11 -8 -11 -5 0 -15 -12 -22 -27 -8 -16 -23 -41 -33 -56 -11 -16 -31 -56 -46
-90 -14 -34 -44 -89 -65 -122 -21 -33 -47 -76 -58 -95 -10 -19 -23 -42 -29
-50 -25 -40 -125 -265 -196 -445 -73 -182 -224 -609 -228 -645 -1 -8 -7 -27
-13 -42 -10 -23 -67 -213 -78 -258 -2 -8 -24 -94 -49 -190 -26 -96 -48 -191
-50 -210 -2 -19 -9 -51 -15 -70 -5 -19 -13 -55 -16 -80 -3 -25 -7 -52 -9 -60
-3 -8 -7 -33 -10 -55 -3 -22 -10 -62 -15 -90 -5 -27 -12 -68 -15 -90 -3 -23
-7 -50 -9 -61 -2 -11 -7 -47 -11 -79 -4 -33 -9 -69 -11 -80 -2 -11 -7 -54 -10
-95 -3 -41 -7 -85 -9 -98 -26 -164 -26 -1032 0 -1327 2 -22 6 -71 9 -110 4
-38 8 -81 11 -95 3 -14 7 -47 10 -75 6 -46 22 -146 46 -270 5 -27 11 -66 14
-85 3 -19 8 -43 11 -52 3 -10 7 -30 10 -45 10 -58 57 -264 91 -398 19 -77 36
-147 38 -155 35 -164 126 -463 178 -583 54 -123 77 -181 77 -193 0 -8 5 -14
10 -14 6 0 10 -7 10 -15 0 -8 4 -23 10 -33 5 -9 37 -80 71 -157 61 -140 277
-586 288 -595 3 -3 22 -35 41 -72 19 -37 38 -68 43 -68 4 0 7 -5 7 -11 0 -33
344 -559 455 -696 6 -7 26 -33 45 -59 54 -72 157 -197 253 -308 33 -37 171
-188 211 -230 21 -23 43 -40 50 -38 6 2 8 0 3 -4 -10 -10 264 -285 276 -277 6
3 7 1 4 -4 -8 -12 27 -46 36 -36 4 3 7 1 7 -6 0 -7 23 -33 51 -59 29 -26 70
-64 93 -86 22 -21 63 -57 89 -80 27 -22 63 -54 80 -69 127 -114 574 -459 589
-454 4 1 13 -5 20 -14 17 -22 288 -202 288 -192 0 5 4 3 8 -2 34 -49 599 -348
897 -475 11 -5 41 -18 67 -29 26 -12 49 -21 53 -21 3 0 24 -8 48 -19 153 -67
478 -180 707 -245 69 -20 139 -40 155 -45 25 -8 83 -23 215 -57 95 -23 243
-57 395 -90 52 -11 245 -43 288 -48 103 -13 135 -16 202 -21 281 -23 1025 -23
1206 0 19 2 63 7 99 10 36 3 94 10 130 16 36 5 76 12 90 14 117 17 109 16 246
44 55 12 110 23 123 26 12 2 31 7 41 10 10 3 27 8 37 10 20 4 150 35 173 41
50 13 177 45 190 48 8 2 35 10 60 17 61 17 62 17 88 23 59 13 526 143 687 191
198 59 454 143 555 182 132 51 265 106 274 115 6 4 18 8 28 8 10 0 18 5 18 12
0 6 3 9 6 5 7 -7 261 123 361 184 37 23 78 47 90 53 13 6 23 14 23 19 0 4 5 7
11 7 12 0 103 60 107 72 2 4 9 8 16 8 7 0 21 8 32 18 10 10 43 33 72 52 28 18
52 36 52 39 0 3 20 19 45 34 25 16 45 33 45 37 0 5 6 10 13 12 51 12 493 410
480 432 -3 6 -3 8 2 4 4 -4 19 5 34 21 48 52 136 154 150 175 8 12 18 23 21
26 18 14 138 182 206 286 127 196 259 453 333 649 13 33 27 69 32 80 9 20 56
158 63 185 3 8 18 64 35 124 58 203 106 476 128 716 9 101 9 547 0 640 -12
120 -15 147 -44 350 -9 67 -65 316 -95 424 -79 286 -207 588 -343 807 -73 117
-227 334 -255 359 -3 3 -28 32 -54 65 -27 33 -53 59 -58 57 -5 -1 -7 2 -4 7 3
5 -81 96 -187 203 -198 199 -240 239 -317 298 -24 19 -51 41 -58 48 -18 16
-122 86 -142 95 -8 4 -31 17 -50 29 -37 22 -293 151 -420 211 -41 19 -128 60
-194 91 -65 31 -122 54 -126 51 -5 -3 -10 -1 -12 4 -6 17 -473 211 -753 313
-60 22 -153 56 -205 75 -52 19 -162 57 -245 84 -82 28 -159 55 -170 60 -19 8
-150 52 -1430 474 -330 109 -607 202 -615 207 -8 4 -49 19 -90 32 -68 22 -131
44 -185 66 -11 4 -45 17 -75 28 -247 91 -395 156 -715 313 -217 107 -302 152
-318 168 -6 6 -19 11 -28 11 -10 0 -19 4 -21 8 -1 4 -32 25 -68 47 -36 21
-113 71 -172 111 -58 40 -108 72 -110 71 -1 -1 -2 0 -1 2 2 4 -50 47 -53 44
-11 -8 -262 243 -302 302 -15 22 -29 42 -33 45 -12 11 -79 128 -97 170 -167
392 -133 741 107 1076 91 127 246 287 323 332 16 9 28 20 28 24 0 4 6 8 14 8
7 0 19 6 25 14 27 33 270 162 396 212 125 48 321 108 395 120 14 2 36 7 50 11
33 8 41 10 92 18 24 4 52 8 63 10 11 2 45 6 75 10 30 4 66 8 80 11 140 22 585
22 770 -1 226 -28 301 -41 465 -77 531 -115 950 -373 1231 -756 35 -48 68 -92
74 -99 5 -7 10 -15 10 -18 0 -3 15 -30 34 -60 37 -56 135 -256 156 -315 6 -19
16 -44 20 -55 11 -24 61 -168 62 -175 0 -3 2 -9 3 -15 17 -62 35 -137 40 -164
3 -19 7 -37 9 -40 2 -3 7 -27 10 -53 4 -26 10 -68 15 -93 13 -67 13 -227 2
-259 -14 -36 -77 -63 -161 -70 -88 -6 -108 0 -129 43 -19 38 -69 188 -77 231
-3 14 -8 34 -11 45 -8 23 -7 19 -22 99 -6 33 -11 73 -11 88 0 32 -79 251 -92
256 -4 2 -8 9 -8 16 0 12 -33 86 -71 161 -60 115 -73 140 -79 145 -3 3 -11 17
-19 32 -49 95 -308 378 -346 378 -7 0 -15 4 -17 9 -8 21 -167 111 -308 175
-56 25 -212 83 -286 106 -230 72 -322 82 -824 83 -366 2 -568 -9 -675 -35 -22
-5 -47 -9 -55 -10 -33 -1 -148 -30 -233 -60 -351 -121 -656 -372 -796 -654
-43 -88 -80 -231 -76 -299 4 -78 98 -273 200 -415 38 -54 247 -247 330 -306
206 -146 490 -300 792 -428 87 -37 172 -74 188 -81 59 -26 392 -153 510 -195
28 -9 104 -36 170 -59 66 -23 237 -81 380 -128 143 -47 269 -89 280 -94 11 -4
92 -31 180 -59 88 -28 169 -55 180 -60 11 -5 65 -23 120 -40 55 -18 109 -36
120 -41 11 -4 94 -33 185 -63 91 -30 251 -84 355 -121 105 -37 195 -68 200
-69 6 -2 17 -5 25 -8 68 -25 193 -69 230 -82 25 -8 83 -29 130 -47 47 -17 117
-42 155 -55 39 -14 79 -29 90 -34 11 -4 117 -45 235 -90 198 -76 392 -153 465
-184 17 -7 41 -18 55 -24 14 -6 65 -29 114 -51 48 -23 92 -38 97 -35 5 3 9 1
9 -3 0 -5 19 -17 43 -28 54 -23 370 -181 419 -209 21 -11 56 -31 78 -44 145
-80 414 -266 530 -367 133 -116 406 -407 444 -474 5 -9 12 -18 16 -21 30 -22
282 -391 347 -508 20 -37 39 -69 42 -72 21 -18 173 -351 211 -460 12 -36 26
-74 30 -85 66 -160 150 -575 175 -865 23 -270 23 -928 1 -1070 -3 -14 -7 -54
-11 -90 -4 -36 -8 -72 -10 -80 -2 -8 -6 -33 -9 -55 -7 -47 -10 -63 -25 -125
-5 -25 -12 -56 -15 -70 -3 -14 -21 -90 -41 -170 -19 -80 -38 -158 -41 -174 -2
-16 -7 -33 -9 -36 -3 -4 -7 -25 -11 -46 -3 -20 -10 -48 -15 -62 -5 -14 -12
-41 -15 -61 -3 -20 -14 -66 -24 -104 -10 -37 -15 -67 -11 -67 14 0 188 214
260 320 25 36 48 67 51 70 12 11 190 290 190 299 0 5 4 11 8 13 4 2 29 39 55
83 26 44 52 87 57 95 5 8 22 39 37 68 15 28 31 52 35 52 4 0 8 9 8 19 0 11 4
21 8 23 22 9 263 478 392 763 53 118 211 550 236 645 2 8 24 85 49 170 25 85
54 193 66 240 11 47 31 130 44 185 23 97 52 241 60 298 2 15 6 31 8 35 3 4 8
34 12 67 3 32 9 63 11 67 3 4 7 30 9 58 2 27 6 53 8 57 3 4 8 37 11 73 4 36 8
75 10 85 2 11 7 47 10 80 3 33 9 76 11 95 3 19 7 69 10 110 2 41 7 104 10 140
14 166 20 657 10 825 -17 285 -26 397 -40 505 -3 19 -7 55 -9 80 -24 217 -104
638 -172 899 -25 97 -47 178 -49 181 -2 4 -6 17 -9 31 -13 70 -124 393 -213
619 -47 121 -56 142 -95 230 -14 30 -38 84 -54 120 -34 79 -266 535 -294 580
-11 18 -56 96 -98 171 -17 30 -47 82 -68 116 -89 143 -150 237 -159 248 -5 6
-14 18 -20 27 -59 91 -295 405 -350 464 -5 6 -25 29 -43 52 -19 23 -44 52 -55
65 -12 13 -37 41 -55 63 -204 241 -573 611 -822 824 -14 12 -36 31 -50 44 -74
65 -274 221 -282 219 -4 -2 -8 1 -8 6 0 15 -338 258 -352 253 -5 -1 -8 2 -8 7
0 10 -244 164 -435 276 -251 147 -597 312 -931 446 -138 55 -537 195 -579 203
-5 1 -37 10 -70 20 -33 10 -67 20 -75 22 -8 2 -92 24 -186 48 -183 48 -313 76
-464 101 -52 8 -106 17 -120 19 -14 3 -47 7 -75 11 -27 3 -59 8 -70 10 -11 2
-40 7 -65 10 -25 3 -54 7 -65 9 -12 2 -51 7 -87 10 -37 4 -75 8 -85 10 -16 3
-125 12 -268 22 -27 2 -162 6 -300 9 -137 4 -255 8 -262 10 -6 2 -13 2 -15 0z"/>
</g>
</svg>
